<?xml version="1.0" standalone="no"?>
<!DOCTYPE svg PUBLIC "-//W3C//DTD SVG 20010904//EN"
 "http://www.w3.org/TR/2001/REC-SVG-20010904/DTD/svg10.dtd">
<svg version="1.0" xmlns="http://www.w3.org/2000/svg"
 width="116.000000pt" height="116.000000pt" viewBox="0 0 116.000000 116.000000"
 preserveAspectRatio="xMidYMid meet">
<metadata>
Created by potrace 1.11, written by Peter Selinger 2001-2013
</metadata>
<g transform="translate(0.000000,116.000000) scale(0.100000,-0.100000)"
fill="#000000" stroke="none">
<path d="M453 1134 c-133 -29 -245 -100 -327 -208 -77 -102 -116 -215 -118
-345 -4 -299 233 -550 537 -568 327 -19 602 233 606 557 6 371 -333 645 -698
564z m242 -9 c86 -18 116 -30 181 -71 160 -100 249 -253 261 -444 13 -225
-100 -423 -301 -524 -386 -195 -837 93 -813 519 10 182 87 323 232 427 132 94
283 126 440 93z"/>
<path d="M453 1105 c-101 -24 -181 -70 -257 -148 -127 -129 -179 -289 -151
-469 23 -150 142 -316 275 -383 67 -34 173 -61 248 -64 296 -11 555 240 554
536 -1 154 -49 272 -156 379 -71 71 -137 112 -225 141 -61 19 -222 24 -288 8z
m292 -40 c134 -46 233 -132 298 -261 144 -284 -27 -649 -336 -719 -193 -44
-357 2 -493 139 -40 40 -80 93 -94 121 -103 221 -59 454 115 613 139 127 330
167 510 107z"/>
<path d="M526 1052 c-3 -5 8 -6 25 -4 16 2 29 6 29 8 0 8 -49 4 -54 -4z"/>
<path d="M598 1053 c7 -3 16 -2 19 1 4 3 -2 6 -13 5 -11 0 -14 -3 -6 -6z"/>
<path d="M462 1039 c-45 -13 -57 -46 -36 -102 9 -23 19 -66 23 -95 4 -28 12
-57 18 -63 7 -7 46 -12 91 -13 86 -1 112 11 111 48 l0 21 -9 -21 c-10 -26 -47
-34 -119 -28 -65 5 -80 16 -76 52 1 15 -6 49 -17 76 -10 27 -18 60 -16 74 3
25 9 30 58 50 31 13 16 13 -28 1z"/>
<path d="M657 1035 c44 -19 52 -54 24 -110 -11 -23 -21 -46 -21 -51 1 -18 50
88 50 107 0 25 -43 69 -67 69 -11 -1 -5 -6 14 -15z"/>
<path d="M571 965 c-1 -22 3 -54 8 -72 8 -28 7 -32 -12 -36 -12 -3 -7 -4 11
-4 17 1 32 5 32 10 0 4 4 6 8 3 5 -3 9 23 9 57 0 46 -1 50 -4 17 -6 -77 -15
-78 -33 -5 -17 64 -18 67 -19 30z"/>
<path d="M462 940 c0 -19 2 -27 5 -17 2 9 2 25 0 35 -3 9 -5 1 -5 -18z"/>
<path d="M480 953 c1 -10 7 -31 15 -48 l15 -30 -7 35 c-3 19 -6 41 -6 48 0 6
-4 12 -9 12 -4 0 -8 -8 -8 -17z"/>
<path d="M530 914 c5 -19 11 -38 14 -41 8 -8 8 41 0 61 -12 30 -22 16 -14 -20z"/>
<path d="M648 925 c-3 -13 -2 -22 2 -20 11 7 20 45 10 45 -4 0 -10 -11 -12
-25z"/>
<path d="M868 912 l24 -18 -69 -66 c-37 -37 -70 -65 -72 -63 -5 6 67 86 101
111 24 18 26 23 13 28 -23 8 -47 -7 -90 -56 -21 -24 -34 -34 -30 -23 4 13 -5
7 -23 -15 -21 -24 -26 -37 -18 -42 10 -7 9 -9 -13 -12 -10 -1 -65 -66 -57 -67
23 -5 33 -4 44 5 10 7 13 6 10 -6 -1 -9 0 -17 5 -17 4 -1 6 1 5 2 -2 2 3 11
11 20 9 12 10 17 2 17 -7 0 -10 4 -6 10 3 5 13 7 23 4 10 -4 13 -2 7 3 -20 16
-8 51 36 103 39 47 67 70 84 70 3 0 -21 -28 -55 -62 -57 -59 -68 -83 -45 -101
6 -5 4 -12 -6 -20 -9 -6 -21 -23 -28 -36 -11 -19 -11 -23 1 -19 7 3 13 10 13
16 0 7 3 12 8 12 4 0 10 0 13 0 4 0 1 -6 -5 -13 -6 -8 -7 -17 -3 -21 4 -4 3
-7 -3 -6 -21 5 -36 0 -30 -9 3 -5 0 -13 -7 -18 -17 -10 -38 -13 -35 -5 1 4 -2
7 -8 7 -5 0 -9 -7 -7 -15 2 -11 -1 -10 -8 3 -6 9 -16 15 -21 12 -5 -4 -7 -10
-4 -15 3 -5 1 -11 -3 -14 -11 -6 -10 34 1 51 4 6 16 10 27 8 11 -2 22 0 25 6
4 5 1 10 -4 10 -42 4 -53 0 -81 -36 -18 -22 -103 -111 -191 -197 -87 -87 -159
-160 -159 -164 0 -15 27 9 145 125 69 68 127 122 130 119 3 -3 -53 -63 -125
-134 -112 -110 -128 -130 -116 -142 12 -12 31 3 135 107 67 66 126 121 131
121 5 0 11 -4 15 -10 4 -6 15 -5 30 2 37 17 69 2 111 -49 21 -27 60 -70 86
-96 26 -26 48 -55 48 -63 0 -16 23 -18 51 -4 39 22 22 51 -112 186 l-131 132
40 26 c22 14 45 33 51 43 6 10 11 14 11 10 0 -5 27 11 60 34 33 23 58 45 55
49 -2 4 14 24 37 46 28 27 39 33 34 19 -5 -14 -4 -17 4 -9 13 13 2 46 -13 37
-6 -4 -8 0 -4 10 3 9 -19 -9 -50 -39 -80 -77 -90 -67 -13 14 l65 67 -72 -69
c-40 -39 -76 -67 -80 -62 -4 4 30 42 76 86 76 72 81 79 62 89 -11 6 -28 11
-38 11 -16 0 -15 -3 5 -18z m10 -138 c-20 -18 -41 -34 -47 -34 -6 0 -11 -4
-11 -10 0 -5 8 -7 18 -3 20 7 -43 -44 -73 -58 -19 -9 -19 -9 -2 4 16 13 16 15
1 21 -15 6 -15 8 1 26 14 15 21 17 26 8 4 -7 5 -16 3 -20 -3 -4 0 -8 6 -8 6 0
10 7 8 15 -2 8 20 34 47 59 58 51 77 52 23 0z m-150 16 c-7 -10 -14 -17 -17
-15 -4 4 18 35 25 35 2 0 -1 -9 -8 -20z m-21 -58 c-10 -10 -14 -22 -10 -27 5
-4 3 -5 -4 -1 -6 3 -14 2 -18 -4 -4 -6 -11 -8 -16 -4 -12 7 8 34 26 34 7 0 16
7 19 16 4 9 9 14 13 10 3 -3 -1 -14 -10 -24z m-87 -195 c0 -2 -10 -12 -22 -23
l-23 -19 19 23 c18 21 26 27 26 19z"/>
<path d="M766 711 c-3 -5 1 -11 9 -14 9 -4 12 -1 8 9 -6 16 -10 17 -17 5z"/>
<path d="M800 907 c-8 -7 -24 -24 -35 -37 -13 -16 -6 -13 20 10 22 19 42 36
44 38 2 1 0 2 -5 2 -5 0 -16 -6 -24 -13z"/>
<path d="M235 888 c13 -46 65 -144 102 -195 45 -59 129 -153 138 -153 12 0 75
64 81 82 4 13 -2 26 -18 39 -12 11 -41 37 -63 58 -72 67 -226 191 -236 191 -6
0 -8 -10 -4 -22z"/>
<path d="M916 891 c-7 -10 24 -75 31 -67 3 3 2 21 -1 41 -7 34 -19 45 -30 26z"/>
<path d="M884 748 l-19 -23 25 20 c14 11 27 21 29 22 2 2 0 3 -6 3 -5 0 -18
-10 -29 -22z"/>
<path d="M916 735 c4 -9 0 -15 -10 -15 -28 0 -38 -35 -21 -82 17 -49 20 -121
5 -148 -11 -21 -16 -107 -7 -116 10 -11 71 -12 90 -2 14 7 16 17 11 56 -3 26
-10 57 -15 70 -14 35 -11 88 7 143 l17 51 -32 29 c-35 32 -54 38 -45 14z m31
-247 c-3 -8 -6 -5 -6 6 -1 11 2 17 5 13 3 -3 4 -12 1 -19z"/>
<path d="M195 718 c-29 -16 -35 -29 -24 -50 5 -10 8 -18 6 -18 -3 0 1 -16 8
-36 12 -35 10 -105 -4 -134 -4 -8 -9 -36 -10 -61 -2 -45 -1 -46 29 -53 18 -3
43 -3 57 0 23 6 24 10 20 58 -3 28 -9 62 -14 76 -11 29 -9 116 4 133 5 7 10
26 12 43 2 24 -3 33 -24 42 -31 14 -35 14 -60 0z m65 -28 c0 -5 -2 -10 -4 -10
-3 0 -8 5 -11 10 -3 6 -1 10 4 10 6 0 11 -4 11 -10z"/>
<path d="M675 649 c-3 -3 2 -12 10 -19 8 -7 15 -11 16 -9 6 30 5 36 -8 36 -7
0 -16 -4 -18 -8z"/>
<path d="M625 639 c-3 -4 2 -6 10 -5 21 3 28 13 10 13 -9 0 -18 -4 -20 -8z"/>
<path d="M525 349 c-16 -4 -23 -7 -15 -8 10 -1 11 -4 3 -12 -13 -13 -36 -3
-28 12 11 16 -11 10 -35 -11 -18 -16 -21 -23 -12 -32 7 -7 12 -42 12 -85 0
-89 -1 -88 126 -88 119 0 124 4 124 107 0 54 3 77 11 73 6 -4 5 2 -2 14 -19
29 -118 46 -184 30z m145 -115 c0 -64 -3 -85 -12 -82 -19 6 -23 148 -6 159 7
5 14 9 16 9 1 0 2 -39 2 -86z"/>
</g>
</svg>
